# xmcd
#
# Track frame offsets:
#	150
#	15385
#	29026
#	43186
#	56448
#	69780
#	80624
#	93653
#	107543
#	121883
#	140268
#	166591
#
# Disc length: 2364 seconds
#
# Revision: 1
# Processed by: cddbd v1.5.2PL0 Copyright (c) Steve Scherf et al.
# Submitted via: audiograbber 1.83.01
#
DISCID=91093a0c
DTITLE=Jon Stevens - Testify!
DYEAR=2012
DGENRE=Blues
TTITLE0=(I Wanna) Testify
TTITLE1=Private Number
TTITLE2=A Change Is Gonna Come
TTITLE3=All Or Nothing
TTITLE4=That's How Strong My Love Is
TTITLE5=Fire
TTITLE6=I Can't Stand Up For Falling Down
TTITLE7=Freedom
TTITLE8=Open To Ideas
TTITLE9=You Can't Do Anything To Hurt Me
TTITLE10=Be Like Me
TTITLE11=Data Track
EXTD=
EXTT0=
EXTT1=
EXTT2=
EXTT3=
EXTT4=
EXTT5=
EXTT6=
EXTT7=
EXTT8=
EXTT9=
EXTT10=
EXTT11=
PLAYORDER=
